<svg xmlns="http://www.w3.org/2000/svg" viewBox="0 0 80 80" width="16px" height="16px"><path fill="#8bb7f0" d="M61.622 4.381c.078-.017.19-.134.192-.205C61.826 3.125 61.822 2.075 61.822 1c-1.016.229-1.972.436-2.922.668-.109.027-.263.185-.265.285-.02.995-.012 1.989-.012 3.062C59.684 4.793 60.654 4.595 61.622 4.381zM61.514 75.597c-.61-.146-1.226-.266-1.841-.392-.336-.068-.671-.131-1.048-.203 0 1.053-.007 2.033.008 3.013.002.103.105.278.19.298.98.237 1.965.453 3.001.687 0-1.073.007-2.113-.014-3.151C61.809 75.76 61.631 75.624 61.514 75.597zM46.714 72.999c0 1.06 0 2.077 0 3.098v.002c1.072.166 2.109.327 3.173.492v-.002c0-1.06 0-2.07 0-3.14C48.813 73.296 47.772 73.148 46.714 72.999 46.714 72.997 46.714 72.999 46.714 72.999zM41.847 7.408c.014-.943.008-1.886.008-2.867-1.124.12-2.181.234-3.235.348 0 1.021 0 1.994 0 3.011 1.029-.098 2.03-.19 3.03-.297C41.725 7.594 41.847 7.477 41.847 7.408zM36.799 71.956c-.727-.07-1.457-.119-2.209-.178l0 0h-.002c0 1.021 0 1.981 0 2.988 1.068.088 2.116.175 3.217.266 0-.683 0-1.324 0-1.967C37.805 72.058 37.805 72.051 36.799 71.956zM58.612 70.276c.019.1.051.188.105.259.197.258.783.226 1.202.305.621.119 1.243.226 1.874.337 0-1.028 0-1.984 0-2.954-1.051-.175-2.072-.344-3.169-.524 0 .287-.002.551-.002.805 0 .254 0 .5.003.744C58.631 69.581 58.556 69.977 58.612 70.276zM62.645 68.377c0 1.014 0 1.975 0 2.969v.002c1.038.212 2.065.421 3.115.634V71.98c0-1.022 0-2.003 0-3.032C64.71 68.755 63.691 68.568 62.645 68.377 62.645 68.375 62.645 68.377 62.645 68.377zM62.629 7.901c1.077-.226 2.092-.439 3.125-.656-.002-1-.002-1.979-.002-3.03-.989.222-1.958.437-2.925.665-.078.019-.19.127-.192.197-.012.931-.008 1.86-.008 2.823h.002C62.629 7.9 62.629 7.901 62.629 7.901zM38.621 68.758c0 .928 0 1.779 0 2.659v.002c1.07.102 2.118.202 3.208.307 0-.938 0-1.801 0-2.691v-.002c-1.089-.093-2.145-.185-3.208-.276V68.758zM57.824 1.905c-.717.144-1.406.281-2.094.424-1.095.229-1.095.231-1.095 1.36 0 .682 0 1.362 0 2.082 1.112-.209 2.147-.402 3.19-.597C57.824 4.042 57.824 2.987 57.824 1.905zM54.645 77.228c.002.088.105.237.185.254.987.212 1.979.407 2.996.61 0-1.104 0-2.172 0-3.269-1.051-.195-2.087-.387-3.19-.592C54.636 75.297 54.631 76.263 54.645 77.228zM53.854 5.7c.022-.978.014-1.958.014-2.991l0 0 0 0c-1.051.183-2.045.354-3.037.541-.066.012-.153.151-.153.232-.01.963-.007 1.928-.007 2.947 1.017-.164 1.957-.309 2.889-.476C53.675 5.933 53.853 5.79 53.854 5.7zM37.78 4.964c-1.097.093-2.142.183-3.188.273 0 1.011 0 1.97 0 2.979 1.075-.081 2.121-.159 3.188-.241C37.78 6.962 37.78 5.987 37.78 4.964zM42.658 75.554c1.07.139 2.113.276 3.181.415 0-1.051 0-2.055 0-3.089-1.067-.127-2.109-.249-3.181-.376C42.658 73.543 42.658 74.522 42.658 75.554zM45.839 4.027c-1.082.142-2.133.281-3.171.419 0 1.038 0 2.026 0 3.05 1.08-.129 2.125-.254 3.171-.378C45.839 6.067 45.839 5.061 45.839 4.027zM33.744 5.3c-1.072.059-2.111.117-3.191.176 0 1.016 0 1.984 0 2.978 1.094-.063 2.143-.124 3.191-.185C33.744 7.257 33.744 6.296 33.744 5.3zM30.524 74.273c.002.095.195.249.312.263.47.054.944.066 1.419.09.497.025.994.049 1.496.073 0-1.011 0-1.969 0-2.974-1.1-.056-2.147-.11-3.24-.166C30.51 72.504 30.5 73.389 30.524 74.273zM22.461 74.308c1.073 0 2.121 0 3.191 0 0-.951 0-1.909 0-2.913-1.067 0-2.116 0-3.191 0C22.461 72.336 22.461 73.281 22.461 74.308zM26.507 74.408c1.095 0 2.142 0 3.186 0 0-.958 0-1.904 0-2.917-1.072 0-2.12 0-3.186 0C26.507 72.426 26.507 73.372 26.507 74.408zM25.652 5.697c-1.075 0-2.125 0-3.179 0 0 1.004 0 1.958 0 2.905 1.078 0 2.116 0 3.179 0C25.652 7.588 25.652 6.64 25.652 5.697zM21.588 5.685c-1.082 0-2.131 0-3.188 0 0 .98 0 1.928 0 2.913 1.072 0 2.123 0 3.188 0C21.588 7.633 21.588 6.679 21.588 5.685zM58.662 12.296c1.077-.18 2.109-.351 3.149-.524 0-.995 0-1.94 0-2.961-1.09.202-2.133.397-3.149.585C58.662 10.391 58.662 11.316 58.662 12.296zM62.651 11.628c1.061-.198 2.091-.392 3.105-.582 0-1.046 0-2.026 0-3.03-1.051.215-2.081.427-3.105.638C62.651 9.66 62.651 10.621 62.651 11.628zM54.653 12.897c1.09-.161 2.128-.315 3.161-.468v-.002c0-.977 0-1.914 0-2.888V9.538c-1.075.175-2.111.344-3.161.515v.002C54.653 11.004 54.653 11.918 54.653 12.897zM57.81 67.568c-1.063-.156-2.091-.309-3.149-.465v.002c0 .967 0 1.892 0 2.84v.002c1.051.17 2.079.337 3.149.51C57.81 69.459 57.81 68.517 57.81 67.568 57.81 67.57 57.81 67.568 57.81 67.568zM54.66 73.511c1.055.193 2.089.383 3.161.578 0-.982 0-1.925 0-2.893-1.058-.176-2.092-.349-3.161-.527C54.66 71.639 54.66 72.565 54.66 73.511zM57.826 5.912c-.987.18-1.953.349-2.915.538-.102.019-.261.146-.263.226-.019.868-.012 1.736-.012 2.659 1.104-.185 2.14-.358 3.19-.534C57.826 7.818 57.826 6.874 57.826 5.912zM40.932 65.599c-.092-.008-.181-.029-.273-.036-.678-.047-1.357-.093-2.05-.141 0 .916 0 1.755 0 2.655 1.097.092 2.153.18 3.195.266.029-.085.047-.114.047-.142.003-.521.007-1.041.008-1.562C41.861 65.686 41.859 65.686 40.932 65.599zM9.476 15.506c-1.072-.059-2.118-.117-3.183-.176 0 .907 0 1.757 0 2.65 1.073.058 2.121.112 3.183.17C9.476 17.241 9.476 16.388 9.476 15.506zM6.291 65.358c0 .89 0 1.743 0 2.657 1.084-.075 2.128-.148 3.188-.22v-.002c0-.895 0-1.743 0-2.635v-.002c-1.073.068-2.12.134-3.188.2C6.291 65.357 6.291 65.358 6.291 65.358zM6.517 24.658c.975.014 1.948.008 2.95.008 0-.797 0-1.657 0-2.589-1.072 0-2.108 0-3.198 0 0 .766-.007 1.574.01 2.381C6.281 24.529 6.434 24.656 6.517 24.658zM9.472 25.394c-1.073 0-2.113 0-3.179 0 0 .826 0 1.679 0 2.628 1.078 0 2.116 0 3.179 0C9.472 27.179 9.472 26.316 9.472 25.394zM6.295 64.679c1.077-.066 2.121-.129 3.188-.193 0-.887 0-1.724 0-2.638-1.092.061-2.14.12-3.188.178C6.295 62.937 6.295 63.79 6.295 64.679zM9.483 32.032c-1.09 0-2.125 0-3.183 0 0 .866 0 1.728 0 2.627 1.08 0 2.128 0 3.183 0C9.483 33.78 9.483 32.943 9.483 32.032zM6.303 47.936c1.082 0 2.128 0 3.184 0 0-.897 0-1.721 0-2.572-1.092 0-2.14 0-3.184 0C6.303 46.265 6.303 47.129 6.303 47.936zM6.291 51.266c1.075 0 2.123 0 3.184 0 0-.916 0-1.765 0-2.588-1.075 0-2.121 0-3.184 0C6.291 49.591 6.291 50.442 6.291 51.266zM22.473 15.133c1.087 0 2.133 0 3.191 0 0-.875 0-1.701 0-2.557-1.094 0-2.143 0-3.191 0C22.473 13.463 22.473 14.309 22.473 15.133zM21.595 12.569c-1.082 0-2.13 0-3.195 0 0 .863 0 1.701 0 2.576 1.07 0 2.12 0 3.195 0C21.595 14.302 21.595 13.465 21.595 12.569zM18.407 31.473c1.075 0 2.123 0 3.181 0 0-.872 0-1.716 0-2.56-1.082 0-2.13 0-3.181 0C18.407 29.782 18.407 30.618 18.407 31.473zM21.596 48.524c-1.073 0-2.123 0-3.195 0 0 .875 0 1.711 0 2.562 1.097 0 2.147 0 3.195 0C21.596 50.204 21.596 49.367 21.596 48.524zM14.349 38.006c1.075 0 2.126 0 3.196 0 0-.856 0-1.697 0-2.579-1.085 0-2.135 0-3.196 0C14.349 36.295 14.349 37.133 14.349 38.006zM18.417 38.008c1.085 0 2.133 0 3.179 0 0-.87 0-1.708 0-2.559-1.077 0-2.126 0-3.179 0C18.417 36.322 18.417 37.168 18.417 38.008zM13.489 32.11c-1.067 0-2.114 0-3.169 0 0 .858 0 1.697 0 2.581 1.07 0 2.118 0 3.169 0C13.489 33.835 13.489 32.994 13.489 32.11zM17.539 42.003c-1.087 0-2.137 0-3.196 0 0 .873 0 1.713 0 2.571 1.07 0 2.121 0 3.196 0C17.539 43.707 17.539 42.869 17.539 42.003zM18.419 44.551c1.087 0 2.135 0 3.191 0 0-.86 0-1.685 0-2.557-1.092 0-2.142 0-3.191 0C18.419 42.869 18.419 43.715 18.419 44.551zM10.322 47.881c1.07 0 2.116 0 3.174 0 0-.878 0-1.718 0-2.564-1.092 0-2.135 0-3.174 0C10.322 46.211 10.322 47.047 10.322 47.881zM13.486 41.309c0-.877 0-1.726 0-2.589-1.067 0-2.111 0-3.156 0 0 .88 0 1.728 0 2.589C11.402 41.309 12.436 41.309 13.486 41.309zM10.32 51.174c1.07 0 2.114 0 3.166 0 0-.899 0-1.735 0-2.552-1.072 0-2.116 0-3.166 0C10.32 49.518 10.32 50.355 10.32 51.174zM10.32 67.749c1.072-.049 2.118-.098 3.164-.148 0-.895 0-1.733 0-2.625-1.072.047-2.118.095-3.164.142C10.32 66.023 10.32 66.863 10.32 67.749zM14.359 60.936c1.085 0 2.133 0 3.19 0 0-.897 0-1.721 0-2.547-1.097 0-2.147 0-3.19 0C14.359 59.293 14.359 60.141 14.359 60.936zM13.474 15.632c-1.067 0-2.099 0-3.156 0 0 .812 0 1.65 0 2.596 1.077 0 2.121 0 3.156 0C13.474 17.397 13.474 16.547 13.474 15.632zM14.346 54.389c1.097 0 2.143 0 3.193 0 0-.895 0-1.73 0-2.554-1.075 0-2.125 0-3.193 0C14.346 52.717 14.346 53.553 14.346 54.389zM10.325 57.76c1.073 0 2.118 0 3.161 0 0-.916 0-1.753 0-2.567-1.068 0-2.113 0-3.161 0C10.325 56.112 10.325 56.962 10.325 57.76zM25.647 64.86c-1.078 0-2.128 0-3.19 0 0 .861 0 1.699 0 2.569 1.106 0 2.152 0 3.19 0C25.647 66.561 25.647 65.726 25.647 64.86zM18.412 67.425c1.08 0 2.13 0 3.19 0 0-.873 0-1.709 0-2.56-1.068 0-2.116 0-3.19 0C18.412 65.769 18.412 66.601 18.412 67.425zM10.318 61.075c1.061 0 2.096 0 3.166 0 0-.939 0-1.775 0-2.569-1.07 0-2.114 0-3.166 0C10.318 59.422 10.318 60.258 10.318 61.075zM17.545 22.331c-1.068 0-2.118 0-3.191 0 0 .856 0 1.691 0 2.574 1.078 0 2.126 0 3.191 0C17.545 24.059 17.545 23.222 17.545 22.331zM13.479 18.932c-1.073 0-2.116 0-3.166 0 0 .841 0 1.663 0 2.579 1.078 0 2.113 0 3.166 0C13.479 20.685 13.479 19.84 13.479 18.932zM10.332 28.8c0 .877 0 1.726 0 2.605 1.06 0 2.084 0 3.14 0 0-.872 0-1.718 0-2.605C12.401 28.8 11.366 28.8 10.332 28.8zM14.344 47.827c1.08 0 2.138 0 3.208 0 0-.875 0-1.699 0-2.545-1.094 0-2.143 0-3.208 0C14.344 46.155 14.344 46.991 14.344 47.827zM17.547 15.776c-1.061 0-2.111 0-3.191 0 0 .833 0 1.68 0 2.579 1.078 0 2.125 0 3.191 0C17.547 17.516 17.547 16.68 17.547 15.776zM10.335 51.888c0 .936 0 1.784 0 2.591 1.073 0 2.106 0 3.147 0 0-.914 0-1.762 0-2.591C12.419 51.888 11.387 51.888 10.335 51.888zM14.346 67.49c1.094 0 2.142 0 3.193 0 0-.905 0-1.741 0-2.547-1.075 0-2.123 0-3.193 0C14.346 65.838 14.346 66.674 14.346 67.49zM14.359 70.778c1.087 0 2.135 0 3.193 0 0-.905 0-1.733 0-2.562-1.09 0-2.14 0-3.193 0C14.359 69.133 14.359 69.983 14.359 70.778zM14.346 64.217c1.084 0 2.142 0 3.19 0 0-.907 0-1.743 0-2.554-1.078 0-2.126 0-3.19 0C14.346 62.564 14.346 63.4 14.346 64.217zM18.405 28.205c1.073 0 2.121 0 3.193 0 0-.841 0-1.679 0-2.567-1.087 0-2.135 0-3.193 0C18.405 26.498 18.405 27.332 18.405 28.205zM14.363 28.181c1.075 0 2.111 0 3.173 0 0-.877 0-1.709 0-2.582-1.078 0-2.128 0-3.173 0C14.363 26.46 14.363 27.308 14.363 28.181zM18.408 41.272c1.077 0 2.125 0 3.191 0 0-.858 0-1.692 0-2.555-1.068 0-2.116 0-3.191 0C18.408 39.593 18.408 40.427 18.408 41.272zM25.647 70.695c0-.868 0-1.704 0-2.562-1.068 0-2.106 0-3.179 0 0 .863 0 1.697 0 2.562C23.548 70.695 24.596 70.695 25.647 70.695zM25.642 9.324c-1.087 0-2.138 0-3.186 0 0 .866 0 1.691 0 2.527 1.104 0 2.155 0 3.186 0C25.642 10.97 25.642 10.134 25.642 9.324zM17.535 32.154c-1.078 0-2.126 0-3.188 0 0 .868 0 1.704 0 2.569 1.07 0 2.12 0 3.188 0C17.535 33.863 17.535 33.016 17.535 32.154zM21.593 51.797c-1.068 0-2.108 0-3.183 0 0 .885 0 1.721 0 2.554 1.08 0 2.131 0 3.183 0C21.593 53.479 21.593 52.643 21.593 51.797z"/><path fill="#8bb7f0" d="M69.875,51.896c-0.198-1.974-0.722-3.847-1.723-5.584c-0.191-0.331-0.654-0.608-0.933-0.735 c-0.177-0.08-1.782-0.125-2.348-0.151c-0.729-0.034-1.46-0.066-2.216-0.102c0-1.094-0.017-2.137,0.01-3.178 c0.008-0.324-0.103-0.478-0.39-0.563c-1.262-0.373-2.516-0.778-3.788-1.117C57.754,40.271,56.766,40.139,56,40 c0-0.37,0-0.707,0-1.045c0-1.207,0.002-1.201,1.156-1.602c2.004-0.695,4.37-1.368,6.071-2.695c1.901-1.485,3.266-3.361,4.071-5.628 c0.729-2.048,0.794-4.18,0.639-6.321c-0.119-1.645-0.493-3.234-1.268-4.702c-0.607-1.15-1.479-2.079-2.589-2.754 c-2.355-1.429-5.105-1.834-7.809-1.683c-0.79,0.044-1.58,0.097-2.382,0.146c-0.015-0.268-0.029-0.487-0.042-0.719 c-1.056,0.132-2.065,0.258-3.089,0.385c0-0.951,0-1.823,0-2.72c1.041-0.154,2.067-0.307,3.095-0.46c0-1.211,0-2.374,0-3.524 c-3.742,0.521-7.468,1.039-11.224,1.562c0,2.228,0,4.451,0,6.752c-2.35,0.105-4.673,0.21-7.023,0.315c0-0.931,0-1.799,0-2.694 c1.009-0.058,1.997-0.114,2.972-0.168c0-1.333,0-2.594,0-3.802c-4.048,0.222-8.053,0.444-12.102,0.666c0,2.159,0,4.3,0,6.488 c-2.711,0-5.377,0-8.068,0c0,1.111,0,2.176,0,3.323c1.061,0,2.096,0,3.137,0c0,0.916,0,1.75,0,2.569c-1.073,0-2.109,0-3.13,0 c0,1.092,0,2.159,0,3.273c1.348,0,2.662,0,4.037,0c0,3.52,0,6.995,0,10.511c1.067,0,2.074,0,3.084,0c0,0.861,0,1.679,0,2.543 c-1.039,0-2.047,0-3.074,0c0,1.345,0,2.64,0,3.997c1.043,0,2.06,0,3.088,0c0,0.866,0,1.675,0,2.545c-1.038,0-2.057,0-3.128,0 c0,3.522,0,6.984,0,10.491c-1.37,0-2.684,0-4.007,0c0,2.235,0,4.422,0,6.611c1.039,0,2.047,0,3.115,0c0,0.841,0,1.658,0,2.542 c1.682,0,3.305,0,4.982,0c0,2.223,0,4.378,0,6.518c2.735,0.12,5.411,0.239,8.156,0.359c0-0.843,0-1.66,0-2.51 c1.072,0.093,2.074,0.18,3.13,0.271c0-1.404,0-2.762,0-4.175c1.641,0.125,3.227,0.246,4.855,0.37c0,2.281,0,4.516,0,6.718 c3.761,0.522,7.474,1.039,11.229,1.562c0-2.343,0-4.672,0-7.045c0.671,0.047,1.268,0.09,1.865,0.132 c2.06,0.144,4.37,0.147,6.388-0.394c3.72-0.995,6.25-3.205,7.268-6.996C70.028,56.676,70.116,54.295,69.875,51.896z M62.69,19.352 c0.992-0.146,1.999-0.293,3.064-0.449c0,1.028,0,2.02,0,3.066c-1.006,0.124-2.016,0.248-3.064,0.376 C62.69,21.344,62.69,20.375,62.69,19.352z M62.677,27.01c1.021-0.095,2.023-0.19,3.062-0.287c0,1.016,0,2.016,0,3.071 c-1.004,0.066-2.018,0.134-3.062,0.203C62.677,28.96,62.677,27.998,62.677,27.01z M30.593,18.838 c1.067-0.053,2.099-0.102,3.157-0.153c0,0.889,0,1.724,0,2.605c-1.056,0.047-2.091,0.095-3.157,0.142 C30.593,20.561,30.593,19.725,30.593,18.838z M32.511,28.934c0,0.824,0,1.641,0,2.498c-1.026,0-2.059,0-3.127,0 c0-0.812,0-1.63,0-2.498C30.429,28.934,31.451,28.934,32.511,28.934z M26.576,18.957c1.043,0,2.062,0,3.112,0 c0,0.794,0,1.628,0,2.53c-1.038,0-2.059,0-3.112,0C26.576,20.698,26.576,19.864,26.576,18.957z M24.859,28.181 c0-0.848,0-1.67,0-2.52c1.039,0,2.074,0,3.142,0c0,0.853,0,1.672,0,2.52C26.931,28.181,25.907,28.181,24.859,28.181z M25.657,60.929 c-1.045,0-2.075,0-3.137,0c0-0.805,0-1.64,0-2.527c1.041,0,2.062,0,3.137,0C25.657,59.224,25.657,60.044,25.657,60.929z M28.894,54.338c-1.056,0-2.091,0-3.152,0c0-0.821,0-1.641,0-2.504c1.041,0,2.072,0,3.152,0 C28.894,52.665,28.894,53.486,28.894,54.338z M28.898,51.059c-1.051,0-2.084,0-3.149,0c0-0.816,0-1.635,0-2.501 c1.045,0,2.077,0,3.149,0C28.898,49.396,28.898,50.204,28.898,51.059z M28.998,38.727c1.033,0,2.065,0,3.12,0 c0,0.841,0,1.677,0,2.54c-1.031,0-2.05,0-3.12,0C28.998,40.415,28.998,39.591,28.998,38.727z M33.763,67.409 c-1.046,0-2.092,0-3.162,0c0-0.846,0-1.653,0-2.501c1.046,0,2.091,0,3.162,0C33.763,65.737,33.763,66.559,33.763,67.409z M37,23.427 c0.268-0.017,8.758-0.439,9.781-0.466c6.622-0.168,6.443,2.677,6.491,4.748c0.086,3.8-1.497,7.218-9.46,7.834 c-0.27,0.02-6.72,0.29-6.813,0.29C37,31.685,37,27.574,37,23.427z M41.927,61.309c-0.522-0.024-2.594-0.12-3.123-0.144 c0-0.853,0-1.701,0-2.506c1.033,0,2.067,0,3.123,0C41.927,59.576,41.927,60.414,41.927,61.309z M49.983,61.882 c-0.773-0.059-2.855-0.222-3.122-0.242c0-0.875,0-1.736,0-2.652c0.794,0.056,1.565,0.109,2.342,0.163 c0.259,0.019,0.519,0.036,0.78,0.054C49.983,60.1,49.983,60.963,49.983,61.882z M54.341,53.619 c-0.192,0.724-0.734,3.435-7.125,3.429C45.651,57.046,37.229,56.68,37,56.68c0-4.187,0-8.266,0-12.409 c0.198,0,5.366,0.12,6.309,0.171c9.962,0.529,10.201,2.449,11.213,6.023C54.812,51.491,54.617,52.582,54.341,53.619z M65.751,57.18 c-1.026-0.119-2.026-0.236-3.061-0.356c0-0.983,0-1.957,0-2.998c1.006,0.097,2.016,0.193,3.061,0.293 C65.751,55.164,65.751,56.154,65.751,57.18z"/></svg>